<?xml version="1.0" encoding="UTF-8"?>
<svg xmlns="http://www.w3.org/2000/svg" width="76" height="20" viewBox="0 0 76 20" fill="none">
  <g clip-path="url(#clip0_8091_14975)">
    <path fill-rule="evenodd" clip-rule="evenodd" d="M20.1024 9.91297C20.1024 15.3877 15.5944 19.8259 10.0336 19.8259C4.75789 19.8259 0.42984 15.8311 0 10.7462H13.3085V9.07969H0C0.42984 3.99485 4.75789 0 10.0336 0C15.5944 0 20.1024 4.43818 20.1024 9.91297ZM57.431 18.0299C60.9198 18.0299 63.2079 16.1755 63.2079 13.3825C63.2079 10.7907 61.4862 9.5618 58.8808 9.13728L56.5699 8.75742C54.8029 8.46697 53.6248 7.70728 53.6248 6.03151C53.6248 4.33342 54.9389 3.0375 57.431 3.0375C59.8549 3.0375 61.1011 4.24404 61.237 5.96449H62.9813C62.8454 3.68546 61.0784 1.65219 57.4536 1.65219C53.874 1.65219 51.9031 3.64076 51.9031 6.09856C51.9031 8.71274 53.6927 9.9193 56.1395 10.3215L58.473 10.679C60.4213 11.0141 61.5088 11.7961 61.5088 13.4496C61.5088 15.3935 59.9002 16.6447 57.4536 16.6447C54.9162 16.6447 53.3303 15.4381 53.1943 13.3825H51.4726C51.6086 16.0638 53.6927 18.0299 57.431 18.0299ZM31.7106 17.7172H25.3674V1.98735H31.4841C34.1801 1.98735 36.0605 3.55139 36.0605 6.05387C36.0605 7.86369 35.0183 9.07023 33.3419 9.47241V9.53946C35.3354 9.9193 36.5589 11.2599 36.5589 13.3602C36.5589 16.0638 34.5425 17.7172 31.7106 17.7172ZM31.2576 8.8915C33.1833 8.8915 34.3613 7.86369 34.3613 6.25495V6.03151C34.3613 4.42279 33.1833 3.41733 31.2576 3.41733H27.0664V8.8915H31.2576ZM31.4614 16.2872C33.5684 16.2872 34.8597 15.1477 34.8597 13.4049V13.1814C34.8597 11.3716 33.5458 10.2768 31.4388 10.2768H27.0664V16.2872H31.4614ZM50.2798 17.7172H48.4675L47.1081 13.4496H40.7647L39.4054 17.7172H37.6836L42.917 1.98735H44.9787L50.2798 17.7172ZM44.027 3.7078H43.8911L41.2178 12.0419H46.6777L44.027 3.7078ZM65.7599 17.7172V1.98735H76V3.43968H67.4591V8.84681H75.3204V10.2768H67.4591V16.2648H76V17.7172H65.7599Z" fill="#0052FF"></path>
  </g>
  <defs>
    <clipPath id="clip0_8091_14975">
      <rect width="76" height="20" fill="white"></rect>
    </clipPath>
  </defs>
</svg>
