<?xml version="1.0" encoding="UTF-8"?>
<svg xmlns="http://www.w3.org/2000/svg" width="94" height="16" viewBox="0 0 94 16" fill="none">
  <g clip-path="url(#clip0_7927_14398)">
    <path d="M7.89525 15.993V12.8826C11.1655 12.8826 13.6882 9.63127 12.4273 6.19075C12.1979 5.55216 11.8321 4.97222 11.3558 4.49195C10.8795 4.01168 10.3044 3.64282 9.67112 3.41148C8.9361 3.13278 8.14518 3.03735 7.3657 3.1333C6.58623 3.22925 5.8413 3.51374 5.19436 3.96255C4.54741 4.41136 4.01762 5.01119 3.65011 5.71095C3.2826 6.41071 3.08825 7.18967 3.08361 7.98149H0C0 2.79754 4.99926 -1.30232 10.4648 0.394763C11.6393 0.766782 12.7073 1.41954 13.5777 2.29744C14.4482 3.17534 15.0953 4.25237 15.464 5.43681C17.1461 10.9509 13.0812 15.993 7.89525 15.993Z" fill="#0080FF"></path>
    <path d="M7.94227 12.8832H4.85866V9.82016H7.94227M4.85866 15.287H2.52273V12.8832H4.85866V15.287ZM2.52273 12.8832H0.562988V10.9043H2.52273M28.172 4.63622C27.2845 4.02323 26.1165 3.69024 24.8079 3.69024H21.9588V12.8794H24.8088C26.1172 12.8794 27.2385 12.5496 28.1729 11.89C28.6832 11.5156 29.0862 11.0116 29.3409 10.4294C29.6223 9.81638 29.7611 9.06244 29.7611 8.2612C29.7611 7.45995 29.6214 6.70601 29.3409 6.14032C29.0594 5.43746 28.6861 4.96636 28.172 4.63622ZM23.6408 5.24921H24.5283C25.5096 5.24921 26.3501 5.43841 27.004 5.8622C27.7048 6.286 28.0359 7.09197 28.0359 8.26593C28.0359 9.43988 27.6607 10.2922 27.004 10.7633C26.397 11.1417 25.6024 11.3763 24.5743 11.3763H23.6408V5.24921ZM31.7697 3.55308C31.6398 3.54958 31.5107 3.57296 31.3901 3.62177C31.2696 3.67058 31.1603 3.74379 31.0689 3.83687C30.9624 3.91983 30.8772 4.02724 30.8202 4.15016C30.7633 4.27308 30.7363 4.40794 30.7415 4.54351C30.7415 4.80594 30.8449 5.05762 31.0289 5.24319C31.2129 5.42875 31.4625 5.533 31.7228 5.533C31.983 5.533 32.2326 5.42875 32.4166 5.24319C32.6007 5.05762 32.704 4.80594 32.704 4.54351C32.7075 4.41259 32.6842 4.28235 32.6358 4.16082C32.5874 4.03929 32.5149 3.92904 32.4226 3.83687C32.2828 3.64767 32.0474 3.55308 31.7659 3.55308M30.9216 6.3806H32.5568V12.8369H30.9282V6.3806M38.4031 6.94818C37.9341 6.52438 37.3712 6.24154 36.768 6.24154C36.3562 6.23239 35.9473 6.31206 35.5685 6.4752C35.1898 6.63835 34.85 6.8812 34.5718 7.18751C33.9883 7.81081 33.6698 8.6396 33.6844 9.49664C33.6844 10.3925 33.9658 11.1928 34.5287 11.8058C35.0916 12.4188 35.8364 12.7016 36.7248 12.7016C37.2965 12.7106 37.8551 12.5283 38.3131 12.1832V12.3242C38.3131 12.8426 38.1733 13.2701 37.8928 13.5539C37.6123 13.8377 37.2361 13.9777 36.7248 13.9777C35.9743 13.9777 35.51 13.6939 34.9499 12.8936L33.8242 13.9777L33.8711 14.025C34.1047 14.3552 34.478 14.6872 34.9452 15.0145C35.4124 15.3418 36.0194 15.4875 36.7202 15.4875C37.7014 15.4875 38.4491 15.2037 39.0092 14.5917C39.5692 13.9796 39.8966 13.2247 39.8966 12.2352V6.3806H38.3103V6.94818H38.4041M37.9838 10.7652C37.7024 11.0953 37.3271 11.2382 36.8581 11.2382C36.389 11.2382 36.0137 11.0972 35.7323 10.7652C35.4509 10.4332 35.312 10.0084 35.312 9.49286C35.312 8.9773 35.4612 8.54783 35.7426 8.21768C36.0241 7.88754 36.3993 7.74469 36.8684 7.74469C37.3374 7.74469 37.7127 7.88564 37.9941 8.21768C38.2756 8.54972 38.4144 8.97446 38.4144 9.49002C38.4144 10.0056 38.2746 10.436 37.9941 10.7624M41.4042 6.37965H43.0394V12.8359H41.3939V6.3806M42.1885 3.55308C42.0587 3.54983 41.9297 3.57321 41.8092 3.62179C41.6887 3.67036 41.5792 3.74313 41.4874 3.83567C41.3957 3.9282 41.3235 4.03858 41.2753 4.1601C41.2272 4.28162 41.204 4.41174 41.2072 4.54257C41.2072 4.805 41.3106 5.05668 41.4946 5.24224C41.6786 5.42781 41.9282 5.53206 42.1885 5.53206C42.4487 5.53206 42.6983 5.42781 42.8823 5.24224C43.0664 5.05668 43.1698 4.805 43.1698 4.54257C43.173 4.41166 43.1498 4.28145 43.1015 4.15987C43.0533 4.03829 42.9811 3.92787 42.8892 3.83532C42.7973 3.74277 42.6877 3.67002 42.5671 3.6215C42.4465 3.57298 42.3174 3.5497 42.1875 3.55308M46.531 4.63622H44.9447V6.3806H44.0066V7.84118H44.9447V10.5278C44.9447 11.3791 45.1323 11.9883 45.4588 12.3185C45.7852 12.6486 46.3969 12.8369 47.1877 12.8369C47.4535 12.8446 47.7194 12.8288 47.9823 12.7896H48.0761V11.328L47.5133 11.3753C47.138 11.3753 46.8566 11.328 46.7628 11.1862C46.623 11.0452 46.5751 10.7624 46.5751 10.3348V7.88848H48.0705V6.42695H46.5798L46.531 4.63622ZM55.5943 3.69024H57.2294V12.8794H55.5961V3.69592M73.5368 10.576C73.2979 10.8546 73.0317 11.1082 72.7422 11.3328C72.4877 11.4883 72.1955 11.5699 71.8979 11.5683C71.6788 11.5664 71.4624 11.519 71.2622 11.4289C71.0621 11.3389 70.8825 11.2083 70.7346 11.0452C70.4072 10.6668 70.2656 10.244 70.2656 9.67827C70.2656 9.11257 70.4054 8.68878 70.7346 8.31133C70.8765 8.14001 71.0558 8.00408 71.2584 7.91415C71.461 7.82423 71.6815 7.78274 71.9026 7.79294C72.4167 7.79294 72.9768 8.12308 73.4439 8.68878L74.5181 7.6482C73.8173 6.75236 72.9298 6.32857 71.8548 6.32857C70.9673 6.32857 70.2196 6.65871 69.5657 7.31806C68.9538 7.96509 68.6171 8.82777 68.6276 9.72178C68.6276 10.6678 68.955 11.5125 69.5657 12.1255C69.8563 12.4441 70.2105 12.697 70.6051 12.8676C70.9996 13.0381 71.4256 13.1225 71.8548 13.115C73.0227 13.115 73.9571 12.5966 74.611 11.6544L73.5368 10.5703M80.1243 7.319C79.8785 6.99243 79.5561 6.73242 79.1862 6.56222C78.7622 6.3642 78.2987 6.2671 77.8316 6.27843C76.9441 6.27843 76.1964 6.60858 75.6354 7.26792C75.1045 7.95328 74.8239 8.80213 74.8408 9.67164C74.8408 10.6611 75.1222 11.4624 75.7283 12.0754C76.3343 12.6884 77.0829 13.0213 78.0642 13.0213C79.1384 13.0213 80.0268 12.5975 80.7275 11.7017L80.7744 11.6544L79.7003 10.6138C79.6065 10.7548 79.4667 10.8494 79.325 10.9922C79.1924 11.1331 79.0329 11.2454 78.856 11.3224C78.6129 11.4566 78.3383 11.522 78.0614 11.5116C77.6545 11.5175 77.2576 11.3841 76.9356 11.1332C76.6542 10.8976 76.5154 10.5656 76.4666 10.1437H80.7651V9.53069C80.7755 9.11278 80.712 8.69634 80.5774 8.30093C80.5091 7.93557 80.3474 7.5945 80.1084 7.31144M76.6204 8.83067C76.6919 8.54547 76.8369 8.28439 77.0407 8.07389C77.1511 7.96292 77.2831 7.87627 77.4285 7.81944C77.5738 7.76261 77.7293 7.73683 77.885 7.74375C78.2603 7.74375 78.5858 7.83834 78.7725 8.07389C78.9601 8.26309 79.0539 8.54688 79.0999 8.83067H76.6204ZM86.3385 6.89805C85.8694 6.47425 85.1705 6.28505 84.3299 6.28505C83.8159 6.29974 83.3092 6.41207 82.8364 6.61614C82.4162 6.85169 81.9921 7.18373 81.7623 7.65672L82.7942 8.64621C83.2145 7.93956 83.6817 7.70023 84.3356 7.70023C84.6413 7.69206 84.9401 7.79251 85.1799 7.98403C85.2863 8.06698 85.3716 8.1744 85.4285 8.29732C85.4855 8.42023 85.5125 8.5551 85.5073 8.69067V9.02081C85.1311 8.89282 84.7364 8.82888 84.3393 8.83162C83.545 8.83162 82.8908 9.02081 82.3768 9.3992C81.8627 9.77759 81.6263 10.3452 81.6263 11.0017C81.6263 11.6147 81.8139 12.0858 82.2332 12.4623C82.6526 12.8388 83.1713 12.9807 83.7746 12.9807C84.3778 12.9807 84.9425 12.7451 85.5035 12.3185V12.8369H87.0918V8.68972C87.0918 7.93294 86.8582 7.32279 86.3413 6.89899M83.4912 10.3859C83.6789 10.2449 83.9115 10.1967 84.2417 10.1967C84.6564 10.2108 85.0663 10.2902 85.4566 10.4322V11.0452C85.0699 11.3883 84.57 11.5732 84.0551 11.5636C83.7736 11.5636 83.541 11.5163 83.3984 11.3744C83.2558 11.2325 83.1648 11.0906 83.1648 10.9014C83.1813 10.797 83.2189 10.6972 83.2752 10.608C83.3315 10.5188 83.4053 10.4423 83.4922 10.383M93.2993 6.99264C92.8303 6.47425 92.2252 6.23586 91.4306 6.23586C90.7764 6.23586 90.2626 6.42506 89.8893 6.80345V6.42506H88.3001V12.8813H89.9352V9.30177C89.9352 8.82878 90.029 8.40593 90.2626 8.12403C90.377 7.9864 90.5208 7.87675 90.6833 7.80334C90.8459 7.72993 91.0228 7.69467 91.2007 7.70023C91.361 7.69236 91.5209 7.72249 91.6675 7.7882C91.8141 7.85392 91.9435 7.95339 92.0451 8.07862C92.2645 8.37985 92.3795 8.7455 92.3725 9.1192V12.8889H94.0001V9.11352C93.9532 8.218 93.7196 7.51104 93.2993 6.99264ZM53.5876 6.89805C53.1185 6.47425 52.4197 6.28505 51.5791 6.28505C51.0645 6.2992 50.5571 6.41121 50.0837 6.6152C49.6634 6.85075 49.2394 7.18278 49.0096 7.65577L50.0415 8.64526C50.4618 7.93862 50.929 7.69929 51.5828 7.69929C51.8886 7.69111 52.1874 7.79157 52.4272 7.98308C52.5336 8.06604 52.6189 8.17345 52.6758 8.29637C52.7328 8.41929 52.7598 8.55415 52.7546 8.68972V9.01987C52.3784 8.89188 51.9836 8.82794 51.5866 8.83067C50.7923 8.83067 50.1381 9.01987 49.624 9.39826C49.1099 9.77665 48.8735 10.3442 48.8735 11.0007C48.8735 11.6137 49.0612 12.0848 49.4805 12.4613C49.8999 12.8378 50.4186 12.9797 51.0218 12.9797C51.6251 12.9797 52.1898 12.7442 52.7508 12.3175V12.8359H54.3391V8.68972C54.3391 7.93294 54.0576 7.32279 53.5886 6.89899M50.6916 10.3859C50.8792 10.2449 51.1119 10.1967 51.4421 10.1967C51.8568 10.2108 52.2667 10.2902 52.657 10.4322V11.0452C52.2703 11.3883 51.7704 11.5732 51.2554 11.5636C50.974 11.5636 50.7413 11.5163 50.5988 11.3744C50.4562 11.2325 50.3652 11.0906 50.3652 10.9014C50.435 10.7063 50.5468 10.5293 50.6926 10.383M63.0758 13.0223C62.1513 13.0227 61.2475 12.7466 60.4787 12.229C59.7099 11.7113 59.1105 10.9754 58.7565 10.1143C58.4025 9.25315 58.3096 8.3055 58.4898 7.39117C58.6699 6.47684 59.1149 5.63692 59.7684 4.97762C60.422 4.31833 61.2548 3.86929 62.1614 3.68729C63.0681 3.50529 64.0079 3.59851 64.8621 3.95515C65.7162 4.3118 66.4462 4.91586 66.9599 5.69092C67.4735 6.46599 67.7477 7.37725 67.7477 8.30944C67.7432 9.55766 67.2496 10.7535 66.3745 11.6363C65.4994 12.5191 64.3137 13.0173 63.0758 13.0223ZM63.0758 5.20002C62.4749 5.19908 61.8872 5.37789 61.3871 5.71381C60.887 6.04973 60.4969 6.52768 60.2662 7.08718C60.0355 7.64669 59.9746 8.26263 60.0911 8.85706C60.2076 9.4515 60.4964 9.99773 60.9208 10.4267C61.3453 10.8556 61.8864 11.1479 62.4756 11.2667C63.0649 11.3855 63.6758 11.3254 64.2312 11.094C64.7865 10.8626 65.2614 10.4703 65.5956 9.9667C65.9298 9.46313 66.1084 8.87092 66.1087 8.26498C66.1096 7.86257 66.0317 7.46394 65.8794 7.09198C65.7271 6.72002 65.5035 6.38205 65.2213 6.09745C64.9392 5.81286 64.6041 5.58725 64.2352 5.43357C63.8664 5.27989 63.4711 5.20116 63.072 5.20191" fill="#0080FF"></path>
  </g>
  <defs>
    <clipPath id="clip0_7927_14398">
      <rect width="94" height="16" fill="white"></rect>
    </clipPath>
  </defs>
</svg>
