<?xml version="1.0" encoding="UTF-8"?>
<svg xmlns="http://www.w3.org/2000/svg" width="98" height="28" viewBox="0 0 98 28" fill="none">
  <g clip-path="url(#clip0_8091_14948)">
    <path d="M30.5513 6.23201V6.19329C30.5513 5.14776 31.2733 4.41797 32.2444 4.41797C33.0441 4.41797 33.6636 4.81712 33.7422 5.63428H33.0839C33.0102 5.17258 32.7523 4.93428 32.2493 4.93428C31.6348 4.93428 31.2345 5.41088 31.2345 6.18932V6.22804C31.2345 7.01144 31.6099 7.47315 32.2543 7.47315C32.7373 7.47315 33.079 7.22988 33.1467 6.73839H33.7811C33.6785 7.57542 33.0829 7.99839 32.2543 7.99839C31.1608 7.9974 30.5513 7.30137 30.5513 6.23201Z" fill="#2C56DD"></path>
    <path d="M34.4333 6.23291V6.19418C34.4333 5.17745 35.1654 4.42383 36.1991 4.42383C37.2379 4.42383 37.956 5.15858 37.956 6.17929V6.21801C37.956 7.23475 37.2578 7.9983 36.1991 7.9983C35.1305 7.9983 34.4333 7.23475 34.4333 6.23291ZM37.2827 6.22298V6.18425C37.2827 5.46936 36.8824 4.93915 36.1991 4.93915C35.5159 4.93915 35.1116 5.43957 35.1116 6.18922V6.22794C35.1116 6.98652 35.5747 7.47801 36.2091 7.47801C36.8674 7.47801 37.2827 6.97659 37.2827 6.22298Z" fill="#2C56DD"></path>
    <path d="M38.7312 4.46875H39.507L40.976 6.98279V4.46875H41.5656V7.94591H40.8924L39.3218 5.28095V7.94591H38.7312V4.46875Z" fill="#2C56DD"></path>
    <path d="M42.3943 6.86539H43.0187C43.0626 7.21588 43.204 7.5078 43.7946 7.5078C44.18 7.5078 44.4529 7.29432 44.4529 6.97262C44.4529 6.65191 44.2915 6.52979 43.7259 6.43745C42.8913 6.32525 42.4969 6.07305 42.4969 5.42071C42.4969 4.85177 42.9849 4.42383 43.7119 4.42383C44.4628 4.42383 44.912 4.7644 44.9797 5.43064H44.3852C44.3214 5.06624 44.1113 4.91035 43.7119 4.91035C43.3165 4.91035 43.1124 5.1 43.1124 5.36808C43.1124 5.65007 43.2289 5.79106 43.8344 5.87844C44.6541 5.99064 45.0783 6.22397 45.0783 6.91901C45.0783 7.52269 44.5664 7.99432 43.7956 7.99432C42.8435 7.99432 42.4431 7.52269 42.3943 6.86539Z" fill="#2C56DD"></path>
    <path d="M45.9258 4.46875H48.1069V4.9791H46.5751V5.9323H47.8051V6.41882H46.5751V7.43556H48.1895V7.94591H45.9258V4.46875Z" fill="#2C56DD"></path>
    <path d="M49.0173 4.46875H49.7932L51.2622 6.98279V4.46875H51.8518V7.94591H51.1785L49.6079 5.28095V7.94591H49.0173V4.46875Z" fill="#2C56DD"></path>
    <path d="M52.6812 6.86539H53.3056C53.3494 7.21588 53.4908 7.5078 54.0814 7.5078C54.4669 7.5078 54.7397 7.29432 54.7397 6.97262C54.7397 6.65191 54.5784 6.52979 54.0127 6.43745C53.1781 6.32525 52.7837 6.07305 52.7837 5.42071C52.7837 4.85177 53.2717 4.42383 53.9988 4.42383C54.7497 4.42383 55.1989 4.7644 55.2666 5.43064H54.672C54.6083 5.06624 54.3991 4.91035 53.9988 4.91035C53.6034 4.91035 53.3992 5.1 53.3992 5.36808C53.3992 5.65007 53.5157 5.79106 54.1213 5.87844C54.9409 5.99064 55.3652 6.22397 55.3652 6.91901C55.3652 7.52269 54.8533 7.99432 54.0824 7.99432C53.1293 7.99432 52.73 7.52269 52.6812 6.86539Z" fill="#2C56DD"></path>
    <path d="M56.8811 6.43673L55.7249 4.4668H56.4419L57.2277 5.90651L57.9936 4.4668H58.628L57.5355 6.44169V7.94495H56.8821V6.43673H56.8811Z" fill="#2C56DD"></path>
    <path d="M58.9924 6.86539H59.6169C59.6607 7.21588 59.8021 7.5078 60.3927 7.5078C60.7781 7.5078 61.051 7.29432 61.051 6.97262C61.051 6.65191 60.8897 6.52979 60.324 6.43745C59.4894 6.32525 59.095 6.07305 59.095 5.42071C59.095 4.85177 59.583 4.42383 60.3101 4.42383C61.061 4.42383 61.5102 4.7644 61.5779 5.43064H60.9833C60.9196 5.06624 60.7104 4.91035 60.3101 4.91035C59.9147 4.91035 59.7105 5.1 59.7105 5.36808C59.7105 5.65007 59.827 5.79106 60.4326 5.87844C61.2522 5.99064 61.6765 6.22397 61.6765 6.91901C61.6765 7.52269 61.1646 7.99432 60.3937 7.99432C59.4406 7.99432 59.0412 7.52269 58.9924 6.86539Z" fill="#2C56DD"></path>
    <path d="M39.4321 23.026C38.6722 23.2663 37.8386 23.4142 36.9313 23.4142C32.7812 23.4142 30.1331 20.5705 30.1331 16.6912V16.5433C30.1331 12.6094 33.0233 9.82031 36.9502 9.82031C40.933 9.82031 43.7674 12.517 43.7674 16.4688V16.6167C43.7674 18.7594 42.9707 20.5874 41.5813 21.8067L42.8014 23.1064C42.875 23.1848 42.8731 23.308 42.7964 23.3834L41.3752 24.7854C41.2955 24.8638 41.167 24.8619 41.0903 24.7804L39.4321 23.026ZM37.6165 21.068L36.4901 19.8457C36.4164 19.7653 36.4204 19.6411 36.5011 19.5667L37.9521 18.2123C38.0328 18.1369 38.1593 18.1419 38.234 18.2223L39.7279 19.8308C40.3025 19.0553 40.6352 17.984 40.6352 16.6545V16.5065C40.6352 13.9399 39.2648 12.1844 36.9492 12.1844C34.6516 12.1844 33.2623 13.8465 33.2623 16.5244V16.6723C33.2623 19.4614 34.8 21.1047 36.9861 21.1047C37.2092 21.1047 37.4133 21.0868 37.6165 21.068Z" fill="#2C56DD"></path>
    <path d="M44.8779 19.7763V13.7513C44.8779 13.6421 44.9676 13.5527 45.0771 13.5527H47.3469C47.4564 13.5527 47.546 13.6421 47.546 13.7513V19.4069C47.546 20.7185 48.0828 21.3461 49.2322 21.3461C50.3625 21.3461 51.2509 20.6441 51.2509 19.2222V13.7513C51.2509 13.6421 51.3406 13.5527 51.4501 13.5527H53.7188C53.8284 13.5527 53.918 13.6421 53.918 13.7513V23.0132C53.918 23.1224 53.8284 23.2117 53.7188 23.2117H51.4501C51.3406 23.2117 51.2509 23.1224 51.2509 23.0132V21.6976C50.751 22.6766 49.769 23.4153 48.1755 23.4153C46.2862 23.4143 44.8779 22.3062 44.8779 19.7763Z" fill="#2C56DD"></path>
    <path d="M54.8442 18.4833V18.3353C54.8442 15.307 57.0482 13.3301 59.9574 13.3301C62.8655 13.3301 65.0516 15.2692 65.0516 18.2797V18.4277C65.0516 21.4749 62.8476 23.414 59.9384 23.414C57.0482 23.414 54.8442 21.4938 54.8442 18.4833ZM62.3287 18.4465V18.3175C62.3287 16.4706 61.4582 15.3626 59.9574 15.3626C58.4754 15.3626 57.5861 16.4339 57.5861 18.2807V18.4287C57.5861 20.2755 58.4386 21.3836 59.9574 21.3836C61.4572 21.3826 62.3287 20.2745 62.3287 18.4465Z" fill="#2C56DD"></path>
    <path d="M66.1579 13.5514H68.4456C68.5551 13.5514 68.6448 13.6408 68.6448 13.75V15.3982C69.2284 14.1641 70.1158 13.4859 71.5639 13.4104C71.6784 13.4045 71.775 13.4948 71.775 13.609V15.6991C71.775 15.8073 71.6883 15.8957 71.5808 15.8977C69.7184 15.9235 68.6448 16.5867 68.6448 18.372V23.0119C68.6448 23.1211 68.5551 23.2104 68.4456 23.2104H66.1579C66.0484 23.2104 65.9587 23.1211 65.9587 23.0119V13.75C65.9587 13.6398 66.0474 13.5514 66.1579 13.5514Z" fill="#2C56DD"></path>
    <path d="M72.7012 19.7763V13.7513C72.7012 13.6421 72.7908 13.5527 72.9004 13.5527H75.1701C75.2797 13.5527 75.3693 13.6421 75.3693 13.7513V19.4069C75.3693 20.7185 75.9061 21.3461 77.0554 21.3461C78.1858 21.3461 79.0742 20.6441 79.0742 19.2222V13.7513C79.0742 13.6421 79.1638 13.5527 79.2733 13.5527H81.5431C81.6526 13.5527 81.7423 13.6421 81.7423 13.7513V23.0132C81.7423 23.1224 81.6526 23.2117 81.5431 23.2117H79.2733C79.1638 23.2117 79.0742 23.1224 79.0742 23.0132V21.6976C78.5742 22.6766 77.5922 23.4153 75.9987 23.4153C74.1094 23.4143 72.7012 22.3062 72.7012 19.7763Z" fill="#2C56DD"></path>
    <path d="M83.3857 13.5515H85.6734C85.7829 13.5515 85.8726 13.6409 85.8726 13.7501V15.0289C86.3546 14.1244 87.3914 13.3301 88.8365 13.3301C90.1142 13.3301 91.0783 13.8653 91.5414 15.0111C92.3192 13.8474 93.5791 13.3301 94.8021 13.3301C96.5988 13.3301 97.9881 14.457 97.9881 17.0237V23.0119C97.9881 23.1211 97.8985 23.2105 97.7889 23.2105H95.5192C95.4096 23.2105 95.32 23.1211 95.32 23.0119V17.3186C95.32 16.0814 94.7643 15.5274 93.8012 15.5274C92.7634 15.5274 91.9298 16.1926 91.9298 17.5033V23.0119C91.9298 23.1211 91.8402 23.2105 91.7306 23.2105H89.4619C89.3524 23.2105 89.2627 23.1211 89.2627 23.0119V17.3186C89.2627 16.0814 88.6881 15.5274 87.7439 15.5274C86.7062 15.5274 85.8726 16.1926 85.8726 17.5033V23.0119C85.8726 23.1211 85.7829 23.2105 85.6734 23.2105H83.3857C83.2762 23.2105 83.1865 23.1211 83.1865 23.0119V13.7501C83.1865 13.6399 83.2752 13.5515 83.3857 13.5515Z" fill="#2C56DD"></path>
    <path fill-rule="evenodd" clip-rule="evenodd" d="M0.012207 13.9992C0.012207 6.29422 6.27664 0.0488281 14.0051 0.0488281C21.7335 0.0488281 27.998 6.29422 27.998 13.9992C27.998 21.7041 21.7335 27.9495 14.0051 27.9495C6.27664 27.9495 0.012207 21.7041 0.012207 13.9992ZM20.5914 16.8472C20.5878 16.1205 21.1818 15.5293 21.918 15.5246H21.9216C22.6579 15.5304 23.2507 16.124 23.2447 16.8496C23.2471 17.574 22.6543 18.1652 21.918 18.1699C21.1818 18.1664 20.5878 17.5751 20.5914 16.8496V16.8472ZM21.5447 14.0094C22.1787 13.6445 22.3974 12.8354 22.0313 12.2035C21.6652 11.5716 20.8533 11.3536 20.2194 11.7186C19.5877 12.0811 19.369 12.8843 19.7281 13.5162L19.7363 13.5279C20.1024 14.1586 20.9107 14.3743 21.5435 14.0094C21.5435 14.01 21.5438 14.0103 21.5441 14.0103C21.5444 14.0103 21.5447 14.01 21.5447 14.0094ZM6.02287 12.2062C6.39037 11.5741 7.20263 11.3595 7.83699 11.7257C8.46901 12.0907 8.68436 12.8978 8.3192 13.5286V13.5333C7.95169 14.1653 7.13944 14.3799 6.50508 14.0137C5.87072 13.6476 5.65536 12.8383 6.02287 12.2062ZM10.0109 11.3606C10.7445 11.3594 11.3386 10.7658 11.3374 10.0356C11.3374 9.807 11.2776 9.58305 11.164 9.38476C10.8043 8.75143 9.99566 8.52749 9.35824 8.88672C9.35794 8.88672 9.35772 8.8868 9.35753 8.88691L9.35732 8.88706L9.35707 8.88731C9.35678 8.8876 9.35648 8.88789 9.3559 8.88789L9.33363 8.90072C8.70321 9.27396 8.49581 10.0857 8.87078 10.7133C9.10982 11.1133 9.54221 11.3594 10.0109 11.3606ZM12.667 8.95927C12.667 8.22913 13.2613 7.63662 13.9936 7.63662C14.7261 7.63662 15.3203 8.22913 15.3203 8.95927C15.3203 9.68942 14.7261 10.2819 13.9936 10.2819C13.2613 10.2819 12.667 9.68942 12.667 8.95927ZM9.76127 15.5256C9.0289 15.5256 8.43458 16.118 8.43458 16.8482C8.43458 17.5783 9.0289 18.1709 9.76127 18.1709C10.4936 18.1709 11.088 17.5783 11.088 16.8482C11.088 16.118 10.4936 15.5256 9.76127 15.5256ZM14.885 13.2384C14.885 12.5082 15.4794 11.9158 16.2117 11.9158C16.9441 11.9158 17.5384 12.5082 17.5384 13.2384C17.5384 13.9685 16.9441 14.5611 16.2117 14.5611C15.4794 14.5611 14.885 13.9685 14.885 13.2384ZM17.3204 11.2315L17.3374 11.241C18.021 11.5797 18.855 11.3116 19.2011 10.6428C19.5202 10.0255 19.3135 9.27165 18.7204 8.89357C18.0393 8.55018 17.2029 8.81101 16.852 9.47744C16.5267 10.0936 16.7285 10.8498 17.3204 11.2315ZM4.76545 16.8232C4.7807 16.0932 5.38597 15.5129 6.11794 15.5246C6.83818 15.5387 7.41648 16.1248 7.41882 16.8431C7.42117 17.5742 6.82878 18.1674 6.09566 18.1698C5.36252 18.1721 4.7678 17.5813 4.76545 16.8501V16.8232ZM18.1809 15.5216C17.4484 15.5216 16.8542 16.1142 16.8542 16.8443C16.8542 17.5744 17.4484 18.1669 18.1809 18.1669C18.9132 18.1669 19.5075 17.5744 19.5075 16.8443C19.5075 16.1142 18.9132 15.5216 18.1809 15.5216ZM12.9402 12.5067C13.3444 13.1149 13.1786 13.9351 12.5688 14.3383C12.5219 14.3697 12.4729 14.3988 12.4216 14.4234C11.7661 14.7472 10.9706 14.4804 10.6458 13.8268C10.3211 13.1732 10.5886 12.3798 11.244 12.0558L11.2521 12.0511C11.8491 11.7587 12.5722 11.9533 12.9402 12.5067Z" fill="#2C56DD"></path>
  </g>
  <defs>
    <clipPath id="clip0_8091_14948">
      <rect width="98" height="28" fill="white"></rect>
    </clipPath>
  </defs>
</svg>
