<?xml version="1.0" encoding="UTF-8"?>
<svg xmlns="http://www.w3.org/2000/svg" width="40" height="43" viewBox="0 0 40 43" fill="none">
  <path d="M38.6507 17.1388C38.6507 14.5896 35.4443 12.1737 30.5282 10.6755C31.6627 5.68681 31.1586 1.71781 28.9368 0.447103C28.4246 0.149034 27.826 0.00784006 27.1721 0.00784006V1.75703C27.5345 1.75703 27.826 1.82763 28.0702 1.96097C29.1416 2.57278 29.6065 4.90242 29.244 7.89877C29.1575 8.6361 29.0157 9.41263 28.8423 10.2049C27.2981 9.82835 25.6122 9.53814 23.8396 9.34989C22.7761 7.89876 21.6731 6.581 20.5622 5.42796C23.1305 3.05127 25.5413 1.74918 27.18 1.74918V0C25.0134 0 22.1773 1.5374 19.3097 4.2043C16.4419 1.55308 13.6058 0.0313784 11.4393 0.0313784V1.78055C13.0701 1.78055 15.4886 3.0748 18.057 5.4358C16.954 6.58885 15.851 7.89876 14.8032 9.34989C13.0227 9.53814 11.3368 9.82835 9.79268 10.2127C9.61141 9.42833 9.47752 8.66746 9.38292 7.93798C9.0128 4.94163 9.4696 2.612 10.5333 1.99234C10.7695 1.85115 11.0768 1.78841 11.4393 1.78841V0.0392185C10.7774 0.0392185 10.1787 0.180413 9.6588 0.478481C7.44493 1.74918 6.94867 5.71033 8.09093 10.6833C3.19069 12.1894 0 14.5975 0 17.1388C0 19.6882 3.20644 22.1041 8.12246 23.6021C6.98795 28.5909 7.49214 32.5598 9.71394 33.8305C10.226 34.1285 10.8247 34.2697 11.4865 34.2697C13.653 34.2697 16.4893 32.7324 19.3569 30.0655C22.2245 32.7168 25.0608 34.2385 27.2272 34.2385C27.8889 34.2385 28.4877 34.0973 29.0077 33.7991C31.2214 32.5284 31.7179 28.5672 30.5754 23.5944C35.46 22.0962 38.6507 19.6803 38.6507 17.1388ZM28.3933 11.907C28.1017 12.9189 27.7394 13.962 27.3296 15.0052C27.0067 14.3779 26.6679 13.7503 26.2976 13.1227C25.9352 12.4953 25.5491 11.8835 25.1631 11.2873C26.2818 11.452 27.3611 11.656 28.3933 11.907ZM24.7849 20.2606C24.1704 21.3197 23.5403 22.3237 22.8864 23.2571C21.7124 23.359 20.5229 23.4139 19.3253 23.4139C18.1357 23.4139 16.9461 23.359 15.7802 23.2648C15.1263 22.3314 14.488 21.3353 13.8736 20.2842C13.2748 19.2567 12.7313 18.2134 12.2349 17.1624C12.7234 16.1113 13.2748 15.0601 13.8658 14.0327C14.4803 12.9738 15.1104 11.9697 15.7643 11.0363C16.9383 10.9343 18.1278 10.8794 19.3253 10.8794C20.515 10.8794 21.7046 10.9343 22.8705 11.0285C23.5244 11.9619 24.1627 12.958 24.7771 14.0092C25.3759 15.0366 25.9194 16.0799 26.4158 17.1311C25.9194 18.182 25.3759 19.2332 24.7849 20.2606ZM27.3296 19.2411C27.7432 20.2633 28.106 21.3051 28.4169 22.3628C27.3847 22.6138 26.2976 22.8256 25.171 22.9903C25.557 22.3865 25.943 21.7668 26.3055 21.1313C26.6679 20.5039 27.0067 19.8685 27.3296 19.2411ZM19.341 27.6105C18.6084 26.8573 17.8757 26.018 17.1509 25.1004C17.86 25.1318 18.5847 25.1553 19.3174 25.1553C20.058 25.1553 20.7907 25.1396 21.5077 25.1004C20.8314 25.9753 20.1081 26.8132 19.341 27.6105ZM13.4796 22.9903C12.361 22.8256 11.2816 22.6217 10.2497 22.3707C10.541 21.3588 10.9036 20.3155 11.3132 19.2723C11.6363 19.8999 11.975 20.5274 12.3451 21.1548C12.7154 21.7824 13.0937 22.3942 13.4796 22.9903ZM19.3017 6.66729C20.0344 7.42028 20.7671 8.25959 21.4918 9.17732C20.7828 9.14594 20.058 9.12242 19.3253 9.12242C18.5847 9.12242 17.8521 9.1381 17.1353 9.17732C17.8115 8.30238 18.5347 7.46448 19.3017 6.66729ZM13.4717 11.2873C13.0857 11.8913 12.6998 12.511 12.3374 13.1462C11.975 13.7738 11.6363 14.4014 11.3132 15.0288C10.8996 14.0065 10.5368 12.9647 10.226 11.907C11.258 11.6638 12.3451 11.452 13.4717 11.2873ZM6.34195 21.1078C3.5531 19.9234 1.74897 18.3704 1.74897 17.1388C1.74897 15.9073 3.5531 14.3465 6.34195 13.1699C7.01949 12.8796 7.76009 12.6208 8.52429 12.3776C8.97334 13.915 9.5642 15.5151 10.2969 17.1546C9.57212 18.7861 8.98902 20.3783 8.5479 21.908C7.76801 21.6647 7.02741 21.3981 6.34195 21.1078ZM10.5805 32.3167C9.50906 31.7049 9.04416 29.3753 9.4067 26.3788C9.49338 25.6416 9.63501 24.865 9.80836 24.0727C11.3526 24.4493 13.0385 24.7396 14.8111 24.9278C15.8746 26.3788 16.9776 27.6966 18.0885 28.8496C15.5202 31.2264 13.1093 32.5284 11.4707 32.5284C11.1162 32.5207 10.8169 32.45 10.5805 32.3167ZM29.2678 26.3397C29.6379 29.336 29.1811 31.6656 28.1174 32.2853C27.8812 32.4265 27.5739 32.4893 27.2114 32.4893C25.5806 32.4893 23.1621 31.195 20.5937 28.834C21.6967 27.681 22.7997 26.3711 23.8475 24.9199C25.628 24.7317 27.3139 24.4414 28.858 24.0571C29.0393 24.8494 29.1811 25.6102 29.2678 26.3397ZM32.3008 21.1078C31.6233 21.3981 30.8827 21.657 30.1185 21.9001C29.6694 20.3627 29.0786 18.7626 28.3459 17.1232C29.0708 15.4916 29.6537 13.8994 30.0949 12.3698C30.8749 12.6129 31.6153 12.8796 32.3087 13.1699C35.0976 14.3542 36.9017 15.9073 36.9017 17.1388C36.8938 18.3704 35.0897 19.9313 32.3008 21.1078Z" fill="#61DAFB"></path>
  <path d="M19.4216 21.1693C21.4101 21.1693 23.022 19.5644 23.022 17.5846C23.022 15.6049 21.4101 14 19.4216 14C17.4332 14 15.8213 15.6049 15.8213 17.5846C15.8213 19.5644 17.4332 21.1693 19.4216 21.1693ZM1.8592 40.8876H0.670696V42.9255H0V37.8878H1.67502C2.24493 37.8878 2.68281 38.017 2.98861 38.2754C3.29674 38.5336 3.45082 38.9096 3.45082 39.4032C3.45082 39.717 3.36509 39.9902 3.19365 40.2233C3.02453 40.4563 2.78822 40.6304 2.48472 40.7457L3.67322 42.8839V42.9255H2.95734L1.8592 40.8876ZM0.670696 40.3444H1.69587C2.02717 40.3444 2.29011 40.2589 2.48472 40.0883C2.68164 39.9176 2.7801 39.6893 2.7801 39.4032C2.7801 39.0919 2.68628 38.8531 2.49862 38.687C2.31328 38.5209 2.04454 38.4367 1.69239 38.4345H0.670696V40.3444ZM5.84873 42.9948C5.33897 42.9948 4.92426 42.8287 4.60456 42.4965C4.28484 42.162 4.12498 41.7156 4.12498 41.1575V41.0398C4.12498 40.6685 4.19564 40.3375 4.33696 40.0469C4.48061 39.7538 4.67985 39.5254 4.93469 39.3618C5.19186 39.1957 5.46987 39.1126 5.76873 39.1126C6.25761 39.1126 6.6376 39.2729 6.90854 39.5935C7.17966 39.9141 7.31513 40.3731 7.31513 40.9705V41.237H4.76788C4.77715 41.6062 4.88489 41.9049 5.09107 42.1332C5.29958 42.3591 5.56369 42.4723 5.88343 42.4723C6.11051 42.4723 6.30271 42.4261 6.4602 42.3339C6.61787 42.2416 6.75563 42.1194 6.87383 41.9671L7.2665 42.2716C6.95134 42.7536 6.47887 42.9948 5.84873 42.9948ZM5.76873 39.6386C5.50926 39.6386 5.29148 39.7331 5.1154 39.9222C4.93933 40.1092 4.83044 40.3721 4.78874 40.7111H6.6723V40.6627C6.6538 40.3375 6.56572 40.086 6.40823 39.9083C6.25056 39.7285 6.0374 39.6386 5.76873 39.6386ZM10.3838 42.9255C10.3466 42.8517 10.3165 42.7203 10.2934 42.531C9.99443 42.8401 9.63769 42.9948 9.223 42.9948C8.85235 42.9948 8.54776 42.8909 8.30905 42.6833C8.07281 42.4733 7.95461 42.2081 7.95461 41.8875C7.95461 41.4978 8.10294 41.1956 8.39943 40.981C8.6982 40.7641 9.11765 40.6557 9.65742 40.6557H10.283V40.3617C10.283 40.1379 10.2157 39.9602 10.0815 39.8289C9.94704 39.695 9.74885 39.6282 9.48707 39.6282C9.2577 39.6282 9.06551 39.6857 8.91031 39.8012C8.7551 39.9164 8.67741 40.056 8.67741 40.2198H8.03106C8.03106 40.033 8.09713 39.8531 8.22907 39.68C8.36349 39.5047 8.54423 39.3664 8.77131 39.2648C9.00068 39.1634 9.25189 39.1126 9.5253 39.1126C9.95867 39.1126 10.298 39.2209 10.5435 39.4379C10.7891 39.6524 10.9165 39.9488 10.9258 40.327V42.0501C10.9258 42.3939 10.9699 42.6671 11.0579 42.8701V42.9255H10.3838ZM9.31689 42.4377C9.51843 42.4377 9.70957 42.3858 9.89031 42.282C10.0709 42.1781 10.2018 42.0432 10.283 41.8771V41.1091H9.77898C8.99134 41.1091 8.59743 41.3385 8.59743 41.7975C8.59743 41.9982 8.66473 42.1552 8.79897 42.2681C8.93338 42.3811 9.10602 42.4377 9.31689 42.4377ZM13.4418 42.4723C13.6712 42.4723 13.8717 42.403 14.0431 42.2646C14.2145 42.1262 14.3094 41.9533 14.3279 41.7456H14.9362C14.9246 41.9601 14.8504 42.1643 14.7137 42.3581C14.577 42.5519 14.394 42.7064 14.1646 42.8217C13.9375 42.9371 13.6967 42.9948 13.4418 42.9948C12.9299 42.9948 12.522 42.8252 12.2185 42.4861C11.9174 42.1446 11.7668 41.6788 11.7668 41.0882V40.981C11.7668 40.6166 11.8339 40.2924 11.9684 40.0088C12.1028 39.725 12.295 39.5047 12.5453 39.3479C12.7977 39.191 13.0955 39.1126 13.4383 39.1126C13.86 39.1126 14.2099 39.2383 14.4879 39.4898C14.7682 39.7412 14.9175 40.0676 14.9362 40.4689H14.3279C14.3094 40.2267 14.2168 40.0283 14.0499 39.8738C13.8856 39.717 13.6816 39.6386 13.4383 39.6386C13.1117 39.6386 12.858 39.7561 12.6772 39.9915C12.499 40.2244 12.4097 40.5624 12.4097 41.0053V41.1263C12.4097 41.5576 12.499 41.8898 12.6772 42.1227C12.8557 42.3558 13.1106 42.4723 13.4418 42.4723ZM16.5312 38.2754V39.1818H17.2332V39.6766H16.5312V41.9982C16.5312 42.1481 16.5626 42.2611 16.6251 42.3372C16.6877 42.4111 16.7942 42.4481 16.9449 42.4481C17.0188 42.4481 17.1208 42.4342 17.2505 42.4065V42.9255C17.0814 42.9716 16.917 42.9948 16.7571 42.9948C16.4699 42.9948 16.2532 42.9081 16.1072 42.7352C15.9613 42.5622 15.8884 42.3165 15.8884 41.9982V39.6766H15.2036V39.1818H15.8884V38.2754H16.5312ZM23.7422 42.9255H23.0714L20.5242 39.0434V42.9255H19.8535V37.8878H20.5242L23.0784 41.7872V37.8878H23.7422V42.9255ZM27.1478 42.9255C27.1107 42.8517 27.0805 42.7203 27.0575 42.531C26.7585 42.8401 26.4018 42.9948 25.9871 42.9948C25.6164 42.9948 25.3117 42.8909 25.0731 42.6833C24.8369 42.4733 24.7187 42.2081 24.7187 41.8875C24.7187 41.4978 24.8668 41.1956 25.1635 40.981C25.4623 40.7641 25.8817 40.6557 26.4215 40.6557H27.0471V40.3617C27.0471 40.1379 26.9798 39.9602 26.8454 39.8289C26.7111 39.695 26.5129 39.6282 26.2511 39.6282C26.0218 39.6282 25.8296 39.6857 25.6744 39.8012C25.5192 39.9164 25.4415 40.056 25.4415 40.2198H24.7951C24.7951 40.033 24.8612 39.8531 24.9932 39.68C25.1276 39.5047 25.3083 39.3664 25.5354 39.2648C25.7648 39.1634 26.016 39.1126 26.2894 39.1126C26.7226 39.1126 27.062 39.2209 27.3076 39.4379C27.5532 39.6524 27.6805 39.9488 27.6899 40.327V42.0501C27.6899 42.3939 27.7339 42.6671 27.822 42.8701V42.9255H27.1478ZM26.081 42.4377C26.2825 42.4377 26.4736 42.3858 26.6544 42.282C26.835 42.1781 26.9658 42.0432 27.0471 41.8771V41.1091H26.5431C25.7554 41.1091 25.3615 41.3385 25.3615 41.7975C25.3615 41.9982 25.4288 42.1552 25.563 42.2681C25.6975 42.3811 25.8701 42.4377 26.081 42.4377ZM29.5699 38.2754V39.1818H30.2719V39.6766H29.5699V41.9982C29.5699 42.1481 29.6013 42.2611 29.6638 42.3372C29.7264 42.4111 29.8329 42.4481 29.9836 42.4481C30.0576 42.4481 30.1596 42.4342 30.2894 42.4065V42.9255C30.1201 42.9716 29.9557 42.9948 29.7958 42.9948C29.5086 42.9948 29.2919 42.9081 29.1459 42.7352C29 42.5622 28.9271 42.3165 28.9271 41.9982V39.6766H28.2425V39.1818H28.9271V38.2754H29.5699ZM31.7246 42.9255H31.0816V39.1818H31.7246V42.9255ZM31.0295 38.1887C31.0295 38.0851 31.0608 37.9974 31.1234 37.9258C31.1882 37.8543 31.2831 37.8187 31.4082 37.8187C31.5335 37.8187 31.6284 37.8543 31.6932 37.9258C31.7581 37.9974 31.7905 38.0851 31.7905 38.1887C31.7905 38.2926 31.7581 38.379 31.6932 38.4483C31.6284 38.5174 31.5335 38.5522 31.4082 38.5522C31.2831 38.5522 31.1882 38.5174 31.1234 38.4483C31.0608 38.379 31.0295 38.2926 31.0295 38.1887ZM33.9973 42.0571L34.9285 39.1818H35.5854L34.2371 42.9255H33.747L32.3849 39.1818H33.0416L33.9973 42.0571ZM37.7156 42.9948C37.206 42.9948 36.7913 42.8287 36.4716 42.4965C36.1518 42.162 35.992 41.7156 35.992 41.1575V41.0398C35.992 40.6685 36.0627 40.3375 36.204 40.0469C36.3475 39.7538 36.5468 39.5254 36.8017 39.3618C37.0589 39.1957 37.3369 39.1126 37.6357 39.1126C38.1245 39.1126 38.5045 39.2729 38.7756 39.5935C39.0466 39.9141 39.1822 40.3731 39.1822 40.9705V41.237H36.6349C36.6442 41.6062 36.7518 41.9049 36.9581 42.1332C37.1665 42.3591 37.4308 42.4723 37.7503 42.4723C37.9774 42.4723 38.1698 42.4261 38.3273 42.3339C38.4848 42.2416 38.6227 42.1194 38.7409 41.9671L39.1336 42.2716C38.8184 42.7536 38.3458 42.9948 37.7156 42.9948ZM37.6357 39.6386C37.3763 39.6386 37.1584 39.7331 36.9824 39.9222C36.8063 40.1092 36.6974 40.3721 36.6558 40.7111H38.5392V40.6627C38.5207 40.3375 38.4326 40.086 38.2751 39.9083C38.1176 39.7285 37.9045 39.6386 37.6357 39.6386Z" fill="#61DAFB"></path>
</svg>
