<?xml version="1.0" encoding="UTF-8"?>
<svg xmlns="http://www.w3.org/2000/svg" width="50" height="25" viewBox="0 0 50 25" fill="none">
  <g clip-path="url(#clip0_8091_14995)">
    <mask id="mask0_8091_14995" style="mask-type:luminance" maskUnits="userSpaceOnUse" x="0" y="0" width="50" height="25">
      <path d="M50 0.00390625H0V24.9014H50V0.00390625Z" fill="white"></path>
    </mask>
    <g mask="url(#mask0_8091_14995)">
      <path d="M43.6731 15.4384C43.6731 16.1167 43.5161 16.6812 43.2075 17.1167C42.9022 17.5531 42.5183 17.881 42.0656 18.0921C41.6172 18.3031 41.1699 18.4107 40.7376 18.4107C40.0194 18.4107 39.4194 18.1751 38.957 17.7109C38.4968 17.2447 38.2645 16.6085 38.2645 15.8195V8.68945H36.2366V15.9374C36.2366 16.9056 36.4054 17.7212 36.7398 18.3626C37.0753 19.0029 37.5452 19.4906 38.1355 19.8113C38.7226 20.1259 39.4022 20.2857 40.1549 20.2857C41.0645 20.2857 41.8301 20.0798 42.4301 19.674C42.9721 19.3031 43.3893 18.8533 43.6731 18.3359V20.1392H45.7011V8.68945H43.6731V15.4394V15.4384Z" fill="#011829"></path>
      <path d="M33.2119 12.9176C32.7452 12.602 32.2484 12.349 31.7355 12.1656C31.2355 11.9863 30.7753 11.8428 30.3656 11.7393L28.7592 11.3275C28.471 11.2557 28.1506 11.1604 27.8087 11.0447C27.4689 10.9258 27.1388 10.7732 26.8302 10.5928C26.5269 10.4104 26.2742 10.182 26.0785 9.91256C25.8914 9.64309 25.7968 9.31522 25.7968 8.93715C25.7968 8.48325 25.9345 8.07239 26.2065 7.71686C26.485 7.35723 26.8796 7.07034 27.3764 6.8644C27.8828 6.65641 28.4839 6.55088 29.1624 6.55088C30.0893 6.55088 30.8807 6.7517 31.5162 7.14924C32.1409 7.53961 32.5022 8.09596 32.5904 8.80293L32.6011 8.89309H34.6517L34.6474 8.78756C34.6216 8.01297 34.3656 7.31112 33.8893 6.70252C33.4194 6.09596 32.7742 5.61235 31.9732 5.26502C31.1742 4.91358 30.2484 4.73633 29.2237 4.73633C28.199 4.73633 27.2764 4.91666 26.4517 5.27219C25.6291 5.62465 24.9635 6.12772 24.4732 6.76911C23.985 7.40846 23.7377 8.16768 23.7377 9.02526C23.7377 10.0611 24.1119 10.9115 24.8484 11.5529C25.5742 12.185 26.571 12.6779 27.8108 13.018L29.7474 13.5457C30.2925 13.6902 30.8076 13.8613 31.2775 14.0539C31.7366 14.2424 32.1119 14.4893 32.3925 14.7895C32.6646 15.0805 32.8033 15.4668 32.8033 15.9371C32.8033 16.4576 32.6409 16.9186 32.3194 17.308C31.9947 17.6973 31.5463 18.0068 30.9882 18.2281C30.4259 18.4463 29.7796 18.557 29.0699 18.557C28.4603 18.557 27.8818 18.4699 27.3538 18.2988C26.8355 18.1246 26.4 17.8582 26.0613 17.5068C25.7302 17.1543 25.5377 16.7014 25.4893 16.1604L25.4807 16.0672H23.3L23.3087 16.1768C23.371 17.0119 23.6441 17.7568 24.1205 18.3889C24.6011 19.0211 25.2667 19.5201 26.1 19.8725C26.9345 20.2229 27.9345 20.4012 29.071 20.4012C30.2904 20.4012 31.3431 20.2035 32.1979 19.8131C33.0624 19.4207 33.7291 18.8838 34.1775 18.2168C34.6323 17.5488 34.8635 16.7916 34.8635 15.9647C34.8635 15.2465 34.7054 14.6307 34.3947 14.1338C34.0861 13.64 33.6882 13.2311 33.2119 12.9166V12.9176Z" fill="#011829"></path>
      <path d="M49.9378 5.74622C49.9378 5.39581 49.7969 5.09253 49.5206 4.84458C49.2496 4.59766 48.9206 4.47266 48.5399 4.47266C48.1593 4.47266 47.8281 4.59766 47.5518 4.84561C47.2797 5.09356 47.1421 5.39684 47.1421 5.74725C47.1421 6.09766 47.2797 6.39991 47.5528 6.64889C47.8281 6.89581 48.1604 7.02081 48.541 7.02081C48.9217 7.02081 49.2195 6.90708 49.4819 6.68372L49.4937 6.67348C49.5034 6.66528 49.5131 6.65708 49.5227 6.64786L49.5614 6.612C49.8131 6.3702 49.9399 6.07921 49.9399 5.74622H49.9378Z" fill="#011829"></path>
      <path d="M49.5376 8.68945H47.5096V20.1393H49.5376V8.68945Z" fill="#011829"></path>
      <path fill-rule="evenodd" clip-rule="evenodd" d="M16.3376 10.3743C17.4022 11.6479 18.0387 13.2585 18.0387 15.0106C18.0387 16.7626 17.3828 18.4224 16.2903 19.7032L16.1957 19.8138L16.171 19.6735C16.1495 19.5546 16.1247 19.4337 16.0957 19.3128C15.5484 17.0218 13.7656 15.0577 10.8312 13.4665C8.84946 12.3948 7.71505 11.1058 7.4172 9.63966C7.22473 8.69192 7.36774 7.74007 7.64409 6.9245C7.92043 6.10995 8.33118 5.42655 8.68065 5.01569L9.82258 3.68577C10.0226 3.45216 10.3978 3.45216 10.5978 3.68577L16.3387 10.3743H16.3376ZM18.143 9.0454L10.4914 0.131467C10.3452 -0.0386141 10.072 -0.0386141 9.92581 0.131467L2.27527 9.0454L2.25054 9.07512C0.843011 10.7401 0 12.8558 0 15.1591C0 20.5229 4.57097 24.8712 10.2086 24.8712C15.8462 24.8712 20.4172 20.5229 20.4172 15.1591C20.4172 12.8558 19.5742 10.7401 18.1667 9.07614L18.1419 9.04643L18.143 9.0454ZM4.10645 10.3456L4.79032 9.54745L4.81075 9.69499C4.82688 9.8118 4.84731 9.9286 4.87097 10.0464C5.31398 12.2606 6.8957 14.1058 9.53979 15.5351C11.8387 16.7821 13.1774 18.2155 13.5624 19.7872C13.7237 20.4429 13.7516 21.0884 13.6817 21.653L13.6774 21.6878L13.6441 21.7032C12.6065 22.1858 11.4398 22.4573 10.2075 22.4573C5.88387 22.4573 2.37849 19.1233 2.37849 15.0095C2.37849 13.2431 3.02473 11.6212 4.1043 10.3435L4.10645 10.3456Z" fill="#011829"></path>
    </g>
  </g>
  <defs>
    <clipPath id="clip0_8091_14995">
      <rect width="50" height="25" fill="white" transform="translate(0 -0.0078125)"></rect>
    </clipPath>
  </defs>
</svg>
