<?xml version="1.0" encoding="UTF-8"?>
<svg xmlns="http://www.w3.org/2000/svg" width="52" height="52" viewBox="0 0 52 52" fill="none">
  <path d="M3.2255 21.3478C3.11062 21.0524 2.8316 20.8555 2.50335 20.8555C2.50335 20.8555 2.50335 20.8555 2.48694 20.8555H0.697955C0.336877 20.8555 0.0578613 21.1509 0.0578613 21.4956C0.0578613 21.8402 0.353289 22.1357 0.697955 22.1357H2.14227L2.88084 23.9082L3.66865 25.8613H5.06372L3.2255 21.3478Z" fill="#1E88E5"></path>
  <path d="M10.5928 20.8555C10.3466 20.8555 10.1702 21.0011 10.0389 21.2966L6.62302 29.8158L5.5562 27.1077H5.04843H4.19189L5.57158 30.4723C5.76854 30.9154 6.08038 31.1441 6.47428 31.1441H6.78715C7.18105 31.1441 7.49289 30.9154 7.68984 30.4723L11.2699 21.7736C11.3027 21.7079 11.316 21.6084 11.316 21.4607C11.316 21.313 11.2514 21.1817 11.1365 21.0504C11.0216 20.9191 10.839 20.8555 10.5928 20.8555ZM14.337 20.8555C14.1564 20.8555 14.0067 20.9191 13.8754 21.0504C13.7441 21.1817 13.6805 21.3468 13.6805 21.5274V27.1743C13.6805 28.4381 14.1216 29.4372 15.0242 30.1594C15.7956 30.7831 16.7507 31.1134 17.8503 31.1134C18.9335 31.1134 19.868 30.7995 20.6558 30.1594C21.5585 29.4372 22.0201 28.4381 22.0201 27.1743V21.5274C22.0201 21.3468 21.9514 21.1817 21.8201 21.0504C21.6888 20.9191 21.5237 20.8555 21.3431 20.8555C21.1462 20.8555 20.9995 20.9191 20.9174 21.0504C20.7861 21.1817 20.7225 21.3468 20.7225 21.5274V27.2256C20.7225 28.0955 20.4261 28.7643 19.8352 29.2567C19.2936 29.6998 18.6371 29.9337 17.8657 29.9337C17.0943 29.9337 16.4378 29.6998 15.8962 29.2567C15.3053 28.7643 15.0089 28.0955 15.0089 27.2256V21.5274C15.0089 21.3468 14.9453 21.1817 14.814 21.0504C14.6827 20.9191 14.5175 20.8555 14.337 20.8555ZM33.8373 20.8555C33.6567 20.8555 33.5059 20.9201 33.391 21.035C33.2762 21.1499 33.2115 21.3007 33.2115 21.4812C33.2115 21.6617 33.2762 21.8074 33.391 21.9223C33.5223 22.0372 33.6567 22.1018 33.8373 22.1018H36.8069V30.5235C36.8069 30.7041 36.8705 30.8487 37.0018 30.98C37.1167 31.1113 37.2829 31.1801 37.4634 31.1801C37.644 31.1801 37.8091 31.1113 37.9404 30.98C38.0717 30.8651 38.1353 30.7041 38.1353 30.5235V22.1018H41.0896C41.2701 22.1018 41.4158 22.0372 41.5307 21.9223C41.6456 21.791 41.7153 21.6617 41.7153 21.4812C41.7153 21.3007 41.6456 21.1499 41.5307 21.035C41.4158 20.9201 41.2701 20.8555 41.0896 20.8555H33.8373ZM26.0874 20.8708C25.9069 20.8708 25.7622 20.9396 25.6309 21.0709C25.4996 21.2022 25.4309 21.3622 25.4309 21.5427V30.2414C25.4309 30.4876 25.5119 30.702 25.6925 30.8826C25.873 31.0631 26.0874 31.1441 26.3336 31.1441H31.4882C31.6687 31.1441 31.8339 31.0959 31.9652 30.9646C32.0965 30.8497 32.1601 30.6887 32.1601 30.5082C32.1601 30.3276 32.0965 30.1625 31.9652 30.0312C31.8339 29.8999 31.6687 29.8311 31.4882 29.8311V29.8516H26.7593V21.5427C26.7593 21.3622 26.6957 21.2022 26.5644 21.0709C26.4331 20.9396 26.2679 20.8708 26.0874 20.8708ZM44.4696 20.8708C44.289 20.8708 44.1239 20.9396 43.9926 21.0709C43.8613 21.2022 43.7977 21.3622 43.7977 21.5427V30.4415C43.7977 30.8518 44.1259 31.1647 44.5363 31.1647C44.9466 31.1647 45.2748 30.8364 45.2748 30.4261V27.2564H48.1778C48.7358 27.2564 49.1954 27.2379 49.4908 27.4513C49.8027 27.6647 50.0335 27.9775 50.214 28.3386C50.3946 28.7161 50.4756 29.2936 50.4756 30.0978V30.4876C50.4756 30.6846 50.5453 30.8497 50.6602 30.9646C50.7751 31.0795 50.9351 31.1441 51.1321 31.1441C51.329 31.1441 51.4932 31.0805 51.6245 30.9492C51.7558 30.8179 51.8245 30.6692 51.8245 30.4722V29.8516C51.8245 29.1951 51.725 28.5838 51.5116 28.0257C51.2162 27.1887 50.689 26.683 49.9832 26.5024C50.6397 26.2727 51.1167 25.9126 51.445 25.4202C51.7568 24.9279 51.922 24.3996 51.922 23.8251C51.922 22.9388 51.6081 22.2331 50.968 21.6915C50.2786 21.117 49.2621 20.8708 47.9162 20.8708H44.4696ZM45.2902 22.3018H47.7521C48.7205 22.3018 49.4262 22.4465 49.8858 22.7583C50.2633 23.0373 50.4448 23.4322 50.4448 23.9739C50.4448 24.5483 50.1976 24.9914 49.7216 25.2869C49.2457 25.5987 48.6066 25.7485 47.8188 25.7485H45.2902V22.3018Z" fill="#2B2A29"></path>
</svg>
